# Blender v2.91.0 OBJ File: 'testCube.blend'
# www.blender.org
o Cube
v 1.000000 1.000000 -1.000000
v 1.000011 -1.000011 -1.000011
v 0.828662 0.775046 0.898105
v 1.073373 -1.127475 1.125304
v -0.831139 0.920415 -0.935812
v -1.000000 -1.000000 -1.000000
v -1.113148 1.386783 1.377505
v -1.000000 -1.000000 1.000000
vt 0.875000 0.500000
vt 0.625000 0.750000
vt 0.625000 0.500000
vt 0.375000 1.000000
vt 0.375000 0.750000
vt 0.375000 0.000000
vt 0.625000 0.250000
vt 0.375000 0.250000
vt 0.375000 0.500000
vt 0.125000 0.750000
vt 0.125000 0.500000
vt 0.875000 0.750000
vt 0.625000 1.000000
vt 0.625000 0.000000
vn -0.0391 0.9927 0.1141
vn -0.0531 0.1117 0.9923
vn -0.9962 0.0876 0.0000
vn -0.0000 -1.0000 0.0000
vn 0.9919 0.1244 -0.0268
vn -0.0000 0.0334 -0.9994
vn 0.2604 0.9521 -0.1602
vn 0.1941 -0.1443 0.9703
vn -0.9929 -0.0288 -0.1152
vn -0.0578 -0.9967 -0.0578
vn 0.9960 0.0000 0.0899
vn -0.0350 0.0000 -0.9994
s off
f 5/1/1 3/2/1 1/3/1
f 3/2/2 8/4/2 4/5/2
f 8/6/3 5/7/3 6/8/3
f 2/9/4 8/10/4 6/11/4
f 2/9/5 3/2/5 4/5/5
f 5/7/6 2/9/6 6/8/6
f 5/1/7 7/12/7 3/2/7
f 3/2/8 7/13/8 8/4/8
f 8/6/9 7/14/9 5/7/9
f 2/9/10 4/5/10 8/10/10
f 2/9/11 1/3/11 3/2/11
f 5/7/12 1/3/12 2/9/12
